<svg width="33" height="25" viewBox="0 0 33 25" fill="none" xmlns="http://www.w3.org/2000/svg">
<g style="mix-blend-mode:hard-light" opacity="0.76" filter="url(#filter0_d_421_1608)">
<path d="M9.15625 17.8359H21.6328C22.2995 17.8359 22.9089 17.7812 23.4609 17.6719C24.013 17.5625 24.487 17.3099 24.8828 16.9141C25.2839 16.513 25.5365 16.0391 25.6406 15.4922C25.7448 14.9453 25.7969 14.3359 25.7969 13.6641V11.0234C25.7969 10.3568 25.7448 9.75 25.6406 9.20312C25.5365 8.65625 25.2839 8.18229 24.8828 7.78125C24.4818 7.38542 24.0052 7.13281 23.4531 7.02344C22.9062 6.91406 22.2995 6.85938 21.6328 6.85938H9.14062C8.48438 6.85938 7.88021 6.91406 7.32812 7.02344C6.78125 7.13281 6.30729 7.38802 5.90625 7.78906C5.51042 8.1849 5.25781 8.65625 5.14844 9.20312C5.04427 9.75 4.99219 10.3516 4.99219 11.0078V13.6641C4.99219 14.3359 5.04427 14.9453 5.14844 15.4922C5.2526 16.0391 5.50521 16.513 5.90625 16.9141C6.30729 17.3099 6.78125 17.5625 7.32812 17.6719C7.88021 17.7812 8.48958 17.8359 9.15625 17.8359ZM8.94531 16.5781C8.54427 16.5781 8.14844 16.5391 7.75781 16.4609C7.3724 16.3828 7.0599 16.2266 6.82031 15.9922C6.58594 15.7578 6.43229 15.4479 6.35938 15.0625C6.28646 14.6771 6.25 14.2839 6.25 13.8828V10.8359C6.25 10.4245 6.28646 10.026 6.35938 9.64062C6.43229 9.25 6.58594 8.9349 6.82031 8.69531C7.05469 8.46094 7.36719 8.30729 7.75781 8.23438C8.15365 8.15625 8.55729 8.11719 8.96875 8.11719H21.8438C22.2448 8.11719 22.638 8.15625 23.0234 8.23438C23.4141 8.30729 23.7292 8.46354 23.9688 8.70312C24.2031 8.9375 24.3568 9.2474 24.4297 9.63281C24.5026 10.0182 24.5391 10.4115 24.5391 10.8125V13.8828C24.5391 14.2839 24.5026 14.6771 24.4297 15.0625C24.3568 15.4479 24.2031 15.7578 23.9688 15.9922C23.7292 16.2318 23.4141 16.3906 23.0234 16.4688C22.638 16.5417 22.2448 16.5781 21.8438 16.5781H8.94531ZM26.8594 14.3672C27.0677 14.3516 27.2839 14.2604 27.5078 14.0938C27.7318 13.9219 27.9219 13.6875 28.0781 13.3906C28.2344 13.0938 28.3125 12.7448 28.3125 12.3438C28.3125 11.9479 28.2344 11.6016 28.0781 11.3047C27.9219 11.0078 27.7318 10.7734 27.5078 10.6016C27.2839 10.4297 27.0677 10.3385 26.8594 10.3281V14.3672ZM8.63281 15.5859H22.1641C22.4349 15.5859 22.6536 15.5651 22.8203 15.5234C22.987 15.4818 23.1302 15.4036 23.25 15.2891C23.3646 15.1745 23.4427 15.0339 23.4844 14.8672C23.5312 14.6953 23.5547 14.474 23.5547 14.2031V10.4922C23.5547 10.2214 23.5312 10.0026 23.4844 9.83594C23.4427 9.66406 23.3646 9.52083 23.25 9.40625C23.1302 9.28646 22.987 9.20833 22.8203 9.17188C22.6536 9.13021 22.4349 9.10938 22.1641 9.10938H8.63281C8.35677 9.10938 8.13542 9.13021 7.96875 9.17188C7.80208 9.20833 7.66146 9.28646 7.54688 9.40625C7.43229 9.52083 7.35156 9.66406 7.30469 9.83594C7.26302 10.0026 7.24219 10.2214 7.24219 10.4922V14.2031C7.24219 14.474 7.26302 14.6953 7.30469 14.8672C7.35156 15.0339 7.43229 15.1745 7.54688 15.2891C7.66667 15.4036 7.80729 15.4818 7.96875 15.5234C8.13542 15.5651 8.35677 15.5859 8.63281 15.5859Z" fill="black"/>
</g>
<defs>
<filter id="filter0_d_421_1608" x="0.992188" y="4.85938" width="31.3203" height="18.9766" filterUnits="userSpaceOnUse" color-interpolation-filters="sRGB">
<feFlood flood-opacity="0" result="BackgroundImageFix"/>
<feColorMatrix in="SourceAlpha" type="matrix" values="0 0 0 0 0 0 0 0 0 0 0 0 0 0 0 0 0 0 127 0" result="hardAlpha"/>
<feOffset dy="2"/>
<feGaussianBlur stdDeviation="2"/>
<feColorMatrix type="matrix" values="0 0 0 0 0 0 0 0 0 0 0 0 0 0 0 0 0 0 0.15 0"/>
<feBlend mode="normal" in2="BackgroundImageFix" result="effect1_dropShadow_421_1608"/>
<feBlend mode="normal" in="SourceGraphic" in2="effect1_dropShadow_421_1608" result="shape"/>
</filter>
</defs>
</svg>
