<svg width="28" height="25" viewBox="0 0 28 25" fill="none" xmlns="http://www.w3.org/2000/svg">
<g style="mix-blend-mode:hard-light" opacity="0.76" filter="url(#filter0_d_421_1610)">
<path d="M10.3359 19.7109H16.0078C16.6276 19.7109 17.1901 19.5755 17.6953 19.3047C18.2005 19.0391 18.6016 18.6641 18.8984 18.1797C19.2005 17.7005 19.3516 17.1406 19.3516 16.5C19.3516 15.8594 19.2005 15.2995 18.8984 14.8203C18.6016 14.3359 18.2005 13.9609 17.6953 13.6953C17.1901 13.4245 16.6276 13.2891 16.0078 13.2891H10.3359C9.71615 13.2891 9.15365 13.4245 8.64844 13.6953C8.14323 13.9609 7.73958 14.3359 7.4375 14.8203C7.14062 15.2995 6.99219 15.8594 6.99219 16.5C6.99219 17.1406 7.14062 17.7005 7.4375 18.1797C7.73958 18.6641 8.14323 19.0391 8.64844 19.3047C9.15365 19.5755 9.71615 19.7109 10.3359 19.7109ZM16.2109 18.5312C15.8359 18.526 15.4948 18.4323 15.1875 18.25C14.8802 18.0677 14.6354 17.8229 14.4531 17.5156C14.276 17.2083 14.1875 16.8672 14.1875 16.4922C14.1875 16.1224 14.276 15.7839 14.4531 15.4766C14.6354 15.1693 14.8802 14.9245 15.1875 14.7422C15.4948 14.5599 15.8359 14.4688 16.2109 14.4688C16.5859 14.4688 16.9271 14.5599 17.2344 14.7422C17.5469 14.9245 17.7943 15.1693 17.9766 15.4766C18.1589 15.7786 18.2474 16.1146 18.2422 16.4844C18.2422 16.8594 18.1484 17.2031 17.9609 17.5156C17.7786 17.8281 17.5339 18.0755 17.2266 18.2578C16.9245 18.4401 16.5859 18.5312 16.2109 18.5312ZM10.6562 12.0859H15.6953C16.362 12.0859 16.9714 11.9375 17.5234 11.6406C18.0807 11.3438 18.5234 10.9271 18.8516 10.3906C19.1849 9.85417 19.3516 9.23177 19.3516 8.52344C19.3516 7.8151 19.1849 7.19271 18.8516 6.65625C18.5234 6.11979 18.0807 5.70312 17.5234 5.40625C16.9714 5.10938 16.362 4.96094 15.6953 4.96094H10.6562C9.98438 4.96094 9.36979 5.10938 8.8125 5.40625C8.26042 5.70312 7.81771 6.11979 7.48438 6.65625C7.15625 7.19271 6.99219 7.8151 6.99219 8.52344C6.99219 9.23177 7.15625 9.85417 7.48438 10.3906C7.81771 10.9271 8.26042 11.3438 8.8125 11.6406C9.36979 11.9375 9.98438 12.0859 10.6562 12.0859ZM10.6562 10.9062C10.2188 10.9062 9.8099 10.8073 9.42969 10.6094C9.05469 10.4062 8.75 10.1276 8.51562 9.77344C8.28646 9.41406 8.17188 8.9974 8.17188 8.52344C8.17188 8.04948 8.28646 7.63542 8.51562 7.28125C8.75 6.92188 9.05469 6.64323 9.42969 6.44531C9.8099 6.24219 10.2188 6.14062 10.6562 6.14062H15.6953C16.1276 6.14062 16.5312 6.24219 16.9062 6.44531C17.2865 6.64323 17.5911 6.92188 17.8203 7.28125C18.0547 7.63542 18.1719 8.04948 18.1719 8.52344C18.1719 8.9974 18.0547 9.41406 17.8203 9.77344C17.5911 10.1276 17.2865 10.4062 16.9062 10.6094C16.5312 10.8073 16.1276 10.9062 15.6953 10.9062H10.6562ZM10.6562 10.375C11 10.3802 11.3099 10.2995 11.5859 10.1328C11.8672 9.96094 12.0911 9.73438 12.2578 9.45312C12.4297 9.16667 12.5156 8.85156 12.5156 8.50781C12.5208 8.16406 12.4401 7.85417 12.2734 7.57812C12.1068 7.29688 11.8802 7.07552 11.5938 6.91406C11.3125 6.7474 11 6.66406 10.6562 6.66406C10.3125 6.66406 10 6.7474 9.71875 6.91406C9.4375 7.08073 9.21354 7.30469 9.04688 7.58594C8.88542 7.86719 8.80469 8.17708 8.80469 8.51562C8.80469 8.85938 8.88542 9.17188 9.04688 9.45312C9.21354 9.73438 9.4375 9.95833 9.71875 10.125C10 10.2917 10.3125 10.375 10.6562 10.375Z" fill="black"/>
</g>
<defs>
<filter id="filter0_d_421_1610" x="2.99219" y="2.96094" width="20.3594" height="22.75" filterUnits="userSpaceOnUse" color-interpolation-filters="sRGB">
<feFlood flood-opacity="0" result="BackgroundImageFix"/>
<feColorMatrix in="SourceAlpha" type="matrix" values="0 0 0 0 0 0 0 0 0 0 0 0 0 0 0 0 0 0 127 0" result="hardAlpha"/>
<feOffset dy="2"/>
<feGaussianBlur stdDeviation="2"/>
<feColorMatrix type="matrix" values="0 0 0 0 0 0 0 0 0 0 0 0 0 0 0 0 0 0 0.15 0"/>
<feBlend mode="normal" in2="BackgroundImageFix" result="effect1_dropShadow_421_1610"/>
<feBlend mode="normal" in="SourceGraphic" in2="effect1_dropShadow_421_1610" result="shape"/>
</filter>
</defs>
</svg>
