<svg width="28" height="25" viewBox="0 0 28 25" fill="none" xmlns="http://www.w3.org/2000/svg">
<g style="mix-blend-mode:hard-light" opacity="0.76" filter="url(#filter0_d_421_1606)">
<path d="M13.6484 19.4766C13.7318 19.4766 13.8151 19.4505 13.8984 19.3984C13.987 19.3464 14.1042 19.25 14.25 19.1094L16.0781 17.3516C16.1406 17.2943 16.1745 17.2292 16.1797 17.1562C16.1901 17.0781 16.1693 17.0052 16.1172 16.9375C15.8724 16.6198 15.5312 16.3438 15.0938 16.1094C14.6615 15.875 14.1797 15.7578 13.6484 15.7578C13.1068 15.7578 12.6146 15.8802 12.1719 16.125C11.7344 16.3698 11.3932 16.6562 11.1484 16.9844C11.112 17.0417 11.099 17.1042 11.1094 17.1719C11.125 17.2344 11.1641 17.2943 11.2266 17.3516L13.0547 19.1094C13.1953 19.25 13.3099 19.3464 13.3984 19.3984C13.487 19.4505 13.5703 19.4766 13.6484 19.4766ZM9.25781 15.375C9.33594 15.4531 9.42188 15.4896 9.51562 15.4844C9.60938 15.4792 9.69531 15.4349 9.77344 15.3516C10.2214 14.8464 10.7917 14.4323 11.4844 14.1094C12.1771 13.7865 12.8984 13.6276 13.6484 13.6328C14.4089 13.6276 15.1354 13.7917 15.8281 14.125C16.5208 14.4531 17.0964 14.8698 17.5547 15.375C17.6276 15.4531 17.7083 15.4922 17.7969 15.4922C17.8854 15.487 17.9661 15.4453 18.0391 15.3672L19.2031 14.2188C19.2656 14.1562 19.2995 14.0885 19.3047 14.0156C19.3099 13.9375 19.2865 13.8646 19.2344 13.7969C18.8542 13.3333 18.3776 12.9193 17.8047 12.5547C17.2318 12.1849 16.5911 11.8958 15.8828 11.6875C15.1745 11.474 14.4297 11.3672 13.6484 11.3672C12.8672 11.3672 12.1224 11.474 11.4141 11.6875C10.7109 11.8958 10.0729 12.1849 9.5 12.5547C8.92708 12.9193 8.45052 13.3333 8.07031 13.7969C8.01302 13.8646 7.98698 13.9349 7.99219 14.0078C7.9974 14.0807 8.03125 14.151 8.09375 14.2188L9.25781 15.375ZM6.13281 12.2422C6.20573 12.3203 6.28906 12.3594 6.38281 12.3594C6.48177 12.3542 6.5651 12.3125 6.63281 12.2344C7.5599 11.2552 8.61979 10.513 9.8125 10.0078C11.0052 9.4974 12.2839 9.24219 13.6484 9.24219C15.0182 9.24219 16.2995 9.4974 17.4922 10.0078C18.6901 10.5182 19.75 11.263 20.6719 12.2422C20.7396 12.3099 20.8203 12.3438 20.9141 12.3438C21.0078 12.3438 21.0885 12.3047 21.1562 12.2266L22.1875 11.1875C22.2552 11.125 22.2891 11.0547 22.2891 10.9766C22.2943 10.8932 22.2708 10.8203 22.2188 10.7578C21.6302 10.0339 20.888 9.38802 19.9922 8.82031C19.0964 8.2474 18.1042 7.79948 17.0156 7.47656C15.9323 7.14844 14.8099 6.98438 13.6484 6.98438C12.487 6.98438 11.362 7.14844 10.2734 7.47656C9.1849 7.79948 8.19271 8.2474 7.29688 8.82031C6.40625 9.38802 5.66667 10.0339 5.07812 10.7578C5.02604 10.8203 5 10.8932 5 10.9766C5.00521 11.0547 5.03906 11.125 5.10156 11.1875L6.13281 12.2422Z" fill="black"/>
</g>
<defs>
<filter id="filter0_d_421_1606" x="1" y="4.98438" width="25.29" height="20.4922" filterUnits="userSpaceOnUse" color-interpolation-filters="sRGB">
<feFlood flood-opacity="0" result="BackgroundImageFix"/>
<feColorMatrix in="SourceAlpha" type="matrix" values="0 0 0 0 0 0 0 0 0 0 0 0 0 0 0 0 0 0 127 0" result="hardAlpha"/>
<feOffset dy="2"/>
<feGaussianBlur stdDeviation="2"/>
<feColorMatrix type="matrix" values="0 0 0 0 0 0 0 0 0 0 0 0 0 0 0 0 0 0 0.15 0"/>
<feBlend mode="normal" in2="BackgroundImageFix" result="effect1_dropShadow_421_1606"/>
<feBlend mode="normal" in="SourceGraphic" in2="effect1_dropShadow_421_1606" result="shape"/>
</filter>
</defs>
</svg>
